As Harry races against time and evil to destroy the Horcruxes, he uncovers the existence of three most powerful objects in the wizarding world: the Deathly Hallows.
 


Director: 
David Yates

 Writers: 
Steve Kloves (screenplay), J.K. Rowling (novel)
 
Stars:
 Daniel Radcliffe, Emma Watson and Rupert Grint 


Media info:

General
Complete name                    : E:\torrent2\Harry Potter and the Deathly Hallows Part 1 (2010). BluRay rip.mkv. 1080p. AVC .DTS 6.ACB-Team\Harry Potter and the Deathly Hallows Part 1 (2010). BluRay rip.mkv. 1080p. AVC .DTS 6.ACB-Team.mkv
Format                           : Matroska
File size                        : 13.3 GiB
Duration                         : 2h 26mn
Overall bit rate                 : 13.0 Mbps
Movie name                       : movie
Encoded date                     : UTC 2011-04-10 06:02:32
Writing application              : mkvmerge v3.2.0 ('Beginnings') built on Feb 12 2010 16:46:17
Writing library                  : libebml v0.7.9 + libmatroska v0.8.1

Video
ID                               : 1
Format                           : AVC
Format/Info                      : Advanced Video Codec
Format profile                   : High@L4.1
Format settings, CABAC           : Yes
Format settings, ReFrames        : 3 frames
Format settings, GOP             : M=4, N=16
Muxing mode                      : Container profile=Unknown@0.0
Codec ID                         : V_MPEG4/ISO/AVC
Duration                         : 2h 26mn
Bit rate mode                    : Variable
Bit rate                         : 10.8 Mbps
Nominal bit rate                 : 15.1 Mbps
Maximum bit rate                 : 35.0 Mbps
Width                            : 1 920 pixels
Height                           : 1 080 pixels
Display aspect ratio             : 16:9
Frame rate                       : 23.976 fps
Color space                      : YUV
Chroma subsampling               : 4:2:0
Bit depth                        : 8 bits
Scan type                        : Progressive
Bits/(Pixel*Frame)               : 0.217
Stream size                      : 11.0 GiB (83%)
Writing library                  : x264 core 114 r1900 60ef1f8
Encoding settings                : cabac=1 / ref=1 / deblock=1:0:0 / analyse=0x3:0x3 / me=dia / subme=1 / psy=1 / psy_rd=0.00:0.00 / mixed_ref=0 / me_range=16 / chroma_me=1 / trellis=0 / 8x8dct=1 / cqm=0 / deadzone=21,11 / fast_pskip=1 / chroma_qp_offset=0 / threads=3 / sliced_threads=0 / slices=4 / nr=0 / decimate=1 / interlaced=0 / constrained_intra=0 / bframes=3 / b_pyramid=1 / b_adapt=1 / b_bias=0 / direct=1 / weightb=1 / open_gop=0 / weightp=1 / keyint=24 / keyint_min=1 / scenecut=40 / intra_refresh=0 / rc_lookahead=0 / rc=abr / mbtree=0 / bitrate=15102 / ratetol=1.0 / qcomp=0.60 / qpmin=0 / qpmax=69 / qpstep=4 / vbv_maxrate=35000 / vbv_bufsize=30000 / nal_hrd=vbr / ip_ratio=1.10 / pb_ratio=1.10 / aq=1:1.00

Audio #1
ID                               : 2
Format                           : DTS
Format/Info                      : Digital Theater Systems
Codec ID                         : A_DTS
Duration                         : 2h 26mn
Bit rate mode                    : Constant
Bit rate                         : 1 510 Kbps
Channel(s)                       : 6 channels
Channel positions                : Front: L C R, Side: L R, LFE
Sampling rate                    : 48.0 KHz
Bit depth                        : 24 bits
Stream size                      : 1.54 GiB (12%)
Language                         : English

Audio #2
ID                               : 3
Format                           : AC-3
Format/Info                      : Audio Coding 3
Mode extension                   : CM (complete main)
Codec ID                         : A_AC3
Duration                         : 2h 26mn
Bit rate mode                    : Constant
Bit rate                         : 448 Kbps
Channel(s)                       : 6 channels
Channel positions                : Front: L C R, Side: L R, LFE
Sampling rate                    : 48.0 KHz
Bit depth                        : 16 bits
Stream size                      : 468 MiB (3%)
Language                         : Dutch

Text #1
ID                               : 4
Format                           : VobSub
Muxing mode                      : zlib
Codec ID                         : S_VOBSUB
Codec ID/Info                    : The same subtitle format used on DVDs
Language                         : English

Text #2
ID                               : 5
Format                           : VobSub
Muxing mode                      : zlib
Codec ID                         : S_VOBSUB
Codec ID/Info                    : The same subtitle format used on DVDs
Language                         : French

Text #3
ID                               : 6
Format                           : VobSub
Muxing mode                      : zlib
Codec ID                         : S_VOBSUB
Codec ID/Info                    : The same subtitle format used on DVDs
Language                         : German

Text #4
ID                               : 7
Format                           : VobSub
Muxing mode                      : zlib
Codec ID                         : S_VOBSUB
Codec ID/Info                    : The same subtitle format used on DVDs
Language                         : Italian

Text #5
ID                               : 8
Format                           : VobSub
Muxing mode                      : zlib
Codec ID                         : S_VOBSUB
Codec ID/Info                    : The same subtitle format used on DVDs
Language                         : Dutch

Text #6
ID                               : 9
Format                           : VobSub
Muxing mode                      : zlib
Codec ID                         : S_VOBSUB
Codec ID/Info                    : The same subtitle format used on DVDs
Language                         : Croatian

Text #7
ID                               : 10
Format                           : VobSub
Muxing mode                      : zlib
Codec ID                         : S_VOBSUB
Codec ID/Info                    : The same subtitle format used on DVDs
Language                         : Hebrew

Text #8
ID                               : 11
Format                           : VobSub
Muxing mode                      : zlib
Codec ID                         : S_VOBSUB
Codec ID/Info                    : The same subtitle format used on DVDs
Language                         : Slovenian

Menu
00:00:00.000                     : en:00:00:00.000
00:04:18.508                     : en:00:04:18.508
00:09:46.627                     : en:00:09:46.627
00:15:16.206                     : en:00:15:16.206
00:19:13.569                     : en:00:19:13.569
00:26:04.229                     : en:00:26:04.229
00:31:37.770                     : en:00:31:37.770
00:35:43.307                     : en:00:35:43.307
00:41:37.536                     : en:00:41:37.536
00:45:45.617                     : en:00:45:45.617
00:50:14.094                     : en:00:50:14.094
00:55:02.715                     : en:00:55:02.715
00:58:31.174                     : en:00:58:31.174
01:03:41.358                     : en:01:03:41.358
01:10:02.197                     : en:01:10:02.197
01:14:30.924                     : en:01:14:30.924
01:18:48.848                     : en:01:18:48.848
01:22:17.599                     : en:01:22:17.599
01:24:55.089                     : en:01:24:55.089
01:28:03.194                     : en:01:28:03.194
01:32:34.173                     : en:01:32:34.173
01:37:40.228                     : en:01:37:40.228
01:42:37.567                     : en:01:42:37.567
01:47:54.133                     : en:01:47:54.133
01:53:48.112                     : en:01:53:48.112
01:57:30.960                     : en:01:57:30.960
02:01:27.988                     : en:02:01:27.988
02:05:42.159                     : en:02:05:42.159
02:09:42.732                     : en:02:09:42.732
02:13:16.029                     : en:02:13:16.029
02:14:47.120                     : en:02:14:47.120

